PathFileType  4	(X/Y/Z) C:\Users\antoi\Documents\MyRepositories\mobilecap\ResultsAnalysis
DataRate	CameraRate	NumFrames	NumMarkers	Units	OrigDataRate	OrigDataStartFrame	OrigNumFrames
100.0	100.0	7	51	mm	100.0	1121	1281
Frame#	Time	r_knee			r_shank_antsup			r_ankle			r_calc			r_5meta			r_toe			L_knee			L_shank_antsup			L_ankle			L_calc			L_5meta			L_toe			r_sh2			r_sh3			r_sh4			L_sh2			L_sh3			r_thigh1			r_thigh2			r_thigh3			r_thigh4			r_thigh5			L_thigh1			L_thigh2			L_thigh3			L_thigh4			r.ASIS			r.PSIS			L.ASIS			L.PSIS			C7			R_Shoulder			L_Shoulder			R_Sternum			L_Sternum			R_humerus			R_elbow_med			R_elbow_lat			R_forearm			R_wrist_radius			R_wrist_ulna			L_humerus			L_elbow_med			L_elbow_lat			L_forearm			L_wrist_radius			L_wrist_ulna			R_HJC			L_HJC			R_HJC_reg			L_HJC_reg			
		X1	Y1	Z1	X2	Y2	Z2	X3	Y3	Z3	X4	Y4	Z4	X5	Y5	Z5	X6	Y6	Z6	X7	Y7	Z7	X8	Y8	Z8	X9	Y9	Z9	X10	Y10	Z10	X11	Y11	Z11	X12	Y12	Z12	X13	Y13	Z13	X14	Y14	Z14	X15	Y15	Z15	X16	Y16	Z16	X17	Y17	Z17	X18	Y18	Z18	X19	Y19	Z19	X20	Y20	Z20	X21	Y21	Z21	X22	Y22	Z22	X23	Y23	Z23	X24	Y24	Z24	X25	Y25	Z25	X26	Y26	Z26	X27	Y27	Z27	X28	Y28	Z28	X29	Y29	Z29	X30	Y30	Z30	X31	Y31	Z31	X32	Y32	Z32	X33	Y33	Z33	X34	Y34	Z34	X35	Y35	Z35	X36	Y36	Z36	X37	Y37	Z37	X38	Y38	Z38	X39	Y39	Z39	X40	Y40	Z40	X41	Y41	Z41	X42	Y42	Z42	X43	Y43	Z43	X44	Y44	Z44	X45	Y45	Z45	X46	Y46	Z46	X47	Y47	Z47	X48	Y48	Z48	X49	Y49	Z49	X50	Y50	Z50	X51	Y51	Z51	

1121	11.20000000	-76.59328	447.89415	-329.91367	-31.75554	390.24305	-320.59345	-248.94293	97.95524	-361.07780	-307.31193	58.46924	-413.01730	-140.27878	39.71768	-302.62723	-91.96043	62.94365	-349.24224	-64.14377	445.70280	-814.11959	-50.66963	361.83357	-836.03835	-233.04129	99.71408	-799.13144	-295.55228	58.07825	-748.27171	-123.92967	40.64899	-840.93657	-76.30652	58.85119	-789.69784	-80.32306	287.77785	-337.77125	-102.02098	417.40092	-304.55243	-152.51339	313.32803	-301.69993	-125.24047	410.17342	-832.24181	-180.54129	302.27956	-832.23692	-220.17813	687.97109	-449.98104	-133.36814	630.76886	-410.48550	-145.78220	610.08739	-346.19544	-279.97730	657.29792	-360.37143	-195.28622	587.95218	-329.00681	-267.34592	680.11839	-773.23095	-171.00451	582.63447	-814.24163	-347.31692	600.29729	-772.82445	-247.39132	503.59553	-777.60338	-246.31002	735.89063	-453.02234	-406.32958	827.44219	-537.10278	-243.62498	708.29497	-684.44959	-402.48770	825.78873	-633.27328	-101.77611	1173.01811	-587.55275	-35.12191	1118.58877	-426.55596	-31.84250	1103.38340	-729.51820	-18.07809	1047.29409	-558.16180	-20.82905	1043.03141	-592.85128	-21.79741	943.55590	-280.59123	-44.80943	818.02690	-280.28399	-19.42875	864.14186	-227.51627	88.18843	932.61487	-283.57225	138.86402	990.12272	-347.87864	168.20018	960.72704	-328.57454	-11.97757	917.60604	-854.48524	-17.51028	785.86583	-835.04185	2.04890	816.19674	-895.62087	115.97968	887.68096	-838.29664	172.87527	950.31455	-774.36954	200.46993	917.11533	-785.52910	-343.85055	683.64540	-483.26364	-348.57330	678.22986	-673.79914	-336.77601	680.89956	-487.39785	-330.63791	678.25707	-641.08644	
1122	11.21000000	-75.28826	446.76007	-328.30336	-30.57454	388.88197	-319.39517	-248.64758	97.98988	-361.06948	-307.26013	58.53755	-413.02968	-140.25056	39.34447	-302.72585	-91.91540	62.71479	-349.18068	-62.21522	444.22727	-815.49031	-49.07072	360.56729	-837.15235	-232.86919	99.71185	-799.10396	-295.47023	58.17595	-748.21836	-123.93610	40.60246	-840.98125	-76.26232	58.75169	-789.73010	-79.45045	286.86777	-336.36061	-100.70851	416.20599	-303.29685	-151.54908	312.38608	-300.60855	-123.31671	409.26922	-833.38316	-179.14855	301.87649	-833.17235	-222.91351	683.78723	-448.68361	-135.09220	628.55218	-408.74671	-147.21307	606.80357	-345.54507	-282.20951	651.71032	-360.32072	-196.37992	583.94900	-328.29445	-269.31629	674.14642	-773.11360	-171.35751	578.68654	-814.93237	-347.95678	593.21692	-773.60255	-246.10987	498.42984	-778.61755	-247.95203	728.67176	-452.99362	-407.72335	819.74643	-537.19029	-245.23768	700.17641	-684.43721	-403.54791	817.97248	-633.66915	-99.06512	1161.79153	-587.21439	-32.63146	1106.82216	-426.55636	-29.27182	1091.73049	-729.04984	-16.26419	1035.60129	-558.70432	-19.51991	1031.22616	-592.52269	-17.69060	932.53768	-280.92920	-39.13979	806.81108	-280.64286	-14.30772	853.27833	-227.70486	92.12356	923.16544	-284.28028	141.67650	981.61390	-348.49327	171.45888	952.45111	-329.54106	-8.09355	906.56840	-853.96737	-12.17523	774.82766	-834.34988	7.22968	805.19581	-894.78544	119.94998	878.62501	-837.10376	175.64683	942.39269	-773.77258	203.78860	909.64617	-784.42682	-345.39315	676.24667	-483.09592	-350.06501	670.23621	-673.61603	-338.53972	673.09197	-487.58051	-331.88966	670.26569	-641.32789	
1123	11.22000000	-74.05086	445.58374	-326.92956	-29.48430	387.74522	-317.93843	-248.36427	98.11690	-360.94208	-307.18555	58.60250	-413.05028	-140.21929	39.26701	-302.57332	-91.81473	62.38911	-349.15381	-60.46706	442.70884	-816.58404	-47.50213	359.42109	-838.22990	-232.69592	99.72877	-799.06722	-295.41961	58.23804	-748.16681	-123.94643	40.55591	-841.01720	-76.20994	58.65237	-789.75508	-78.38086	285.79684	-335.27981	-99.42708	415.32575	-301.97833	-150.65668	311.66429	-299.68715	-121.52133	408.34586	-834.20467	-179.26025	299.61706	-831.72624	-225.44210	679.47174	-447.83933	-136.71884	625.99938	-407.52085	-148.53134	603.69399	-344.99932	-284.25201	646.37196	-360.31107	-197.31976	580.11958	-327.69608	-270.95074	668.52973	-773.15978	-171.49970	574.93919	-815.70155	-348.39075	586.50270	-774.38277	-244.99452	493.23108	-779.27466	-249.43298	721.43346	-452.94727	-409.14743	812.10968	-537.25986	-246.51881	692.13707	-684.09457	-404.45957	810.32192	-634.08756	-96.57847	1150.95177	-586.88890	-30.41757	1095.47585	-426.45367	-26.88308	1080.40752	-728.42816	-17.81638	1023.31469	-557.20942	-19.27528	1017.88323	-591.61710	-13.85568	921.86235	-281.25581	-33.78505	795.87004	-281.07050	-9.43035	842.58892	-228.02581	95.90589	913.87409	-285.13000	144.28173	973.30304	-349.25679	174.46907	944.44663	-330.53613	-4.48341	895.73943	-853.22176	-7.05045	764.54299	-833.05980	12.15150	794.30096	-893.52121	123.48490	869.67182	-835.94717	178.15006	934.62935	-773.03389	206.82030	902.39828	-783.60536	-346.85932	668.88718	-482.89131	-351.28359	662.33861	-673.39985	-340.15634	665.24539	-487.90820	-332.72105	662.40960	-641.49231	
1124	11.23000000	-72.85076	444.35330	-325.65313	-28.38261	386.67081	-316.32928	-248.14762	98.18019	-360.87838	-307.10724	58.65518	-413.07269	-140.10957	39.24608	-302.34498	-91.68815	62.12014	-349.10546	-58.86390	441.25464	-817.65608	-45.99356	358.29185	-839.09992	-232.50488	99.79433	-799.06190	-295.40242	58.27285	-748.10862	-123.95397	40.52143	-841.05100	-76.15279	58.53727	-789.76612	-77.18784	284.70628	-334.46426	-98.25951	414.58728	-300.67532	-149.82547	310.82688	-298.92226	-119.85144	407.52594	-834.85975	-180.41515	296.27297	-828.54077	-227.65254	674.84068	-447.86572	-138.14414	622.93426	-407.17098	-149.71555	600.75569	-344.56996	-285.97313	641.23333	-360.11979	-198.16563	576.51117	-327.17161	-272.40548	663.30195	-773.36971	-171.57158	571.11392	-816.24942	-348.74568	580.05528	-775.18075	-244.02012	488.20442	-779.86935	-250.44165	714.54182	-453.01701	-410.61003	804.57940	-538.21445	-246.60887	685.15592	-683.04172	-405.18228	802.85290	-634.54064	-94.26199	1140.42450	-586.74410	-28.45311	1084.53004	-426.44353	-24.65952	1069.44914	-727.94389	-18.90163	1011.61133	-555.47585	-18.69242	1005.32549	-590.92747	-10.25293	911.49829	-281.57763	-28.75173	785.14583	-281.56661	-4.74259	832.03782	-228.61353	99.42704	904.84245	-285.93810	146.68670	965.13489	-350.08348	177.37615	936.78214	-331.23545	-1.11108	885.16527	-852.30084	-2.08722	754.87678	-831.39782	16.64472	783.65331	-892.22110	126.73095	860.98990	-835.09238	180.29024	927.02589	-772.14909	209.50793	895.30554	-782.75399	-347.79649	661.72671	-482.96334	-351.21210	654.88585	-673.47905	-340.95715	658.03889	-488.50985	-332.34333	655.30033	-641.31299	
1125	11.24000000	-71.72442	443.21381	-324.27657	-27.25217	385.51113	-314.97250	-248.04681	98.12287	-360.96593	-307.05078	58.69446	-413.09040	-139.99933	39.10229	-302.27354	-91.59897	61.98101	-349.01790	-57.35207	439.94161	-818.66883	-44.58299	357.15012	-839.72681	-232.31413	99.82999	-799.01194	-295.35612	58.31104	-748.02062	-123.95668	40.49197	-841.07896	-76.09635	58.42603	-789.76520	-76.14459	283.77387	-333.59642	-97.15336	413.55127	-299.63426	-148.94172	309.71079	-298.31464	-118.27578	406.79407	-835.40070	-180.36450	294.44903	-827.09943	-229.57488	670.30221	-448.22963	-139.39448	619.82374	-407.20162	-150.73251	597.92984	-344.31451	-287.40211	636.35282	-359.97027	-198.91683	573.05747	-326.77501	-273.84837	658.32996	-773.68033	-171.69419	567.13430	-816.36977	-349.07984	573.76543	-775.98873	-243.07944	483.49482	-780.70183	-251.41737	707.68689	-453.21842	-412.02693	797.29379	-539.68437	-245.89427	678.92501	-681.59539	-405.78760	795.65125	-635.06583	-92.03116	1130.02571	-586.72225	-26.65802	1074.00182	-426.40582	-22.58996	1058.89362	-727.67759	-17.13610	1000.78405	-555.08926	-16.03380	995.57075	-591.11438	-6.88856	901.37338	-281.95072	-24.02526	774.71397	-282.14041	-0.30028	821.74184	-229.34485	102.59014	896.16778	-286.60036	148.89089	957.15566	-350.86636	180.10052	929.35428	-331.83920	2.11037	874.98440	-851.49007	2.43966	745.49072	-830.24667	20.66691	773.53284	-891.39747	129.74281	852.66365	-834.42717	182.10208	919.48643	-771.22495	211.82316	888.29570	-781.66775	-348.62220	654.66054	-483.36872	-350.38704	647.91398	-673.90981	-341.39827	651.45869	-489.28218	-331.48012	648.84795	-640.89885	
1126	11.25000000	-70.66156	442.14607	-322.95436	-26.11631	384.36753	-313.83952	-248.02301	98.07378	-361.07912	-307.01441	58.71686	-413.10658	-139.97796	39.04830	-302.23704	-91.55501	61.87068	-348.98164	-55.86760	438.72519	-819.47283	-43.29407	356.05336	-840.18359	-232.14734	99.81146	-798.86980	-295.21459	58.37907	-747.93252	-123.95923	40.45744	-841.09917	-76.02855	58.33348	-789.79152	-75.31384	282.89367	-332.64605	-96.04324	412.27845	-298.75978	-147.95406	308.69534	-297.70417	-116.79338	406.05594	-835.75314	-178.51048	294.70038	-828.31437	-231.22889	665.91731	-448.69061	-140.44001	616.78402	-407.35289	-151.53645	595.16136	-344.25665	-288.60367	631.80859	-360.01900	-199.47089	569.77843	-326.50371	-275.20718	653.37671	-773.86183	-171.89247	563.38356	-816.56707	-349.35581	567.74622	-776.88055	-242.16771	478.99029	-781.55730	-253.47057	699.78655	-453.34837	-413.09914	790.34195	-540.58990	-246.17089	671.58150	-680.57574	-406.30498	788.72365	-635.54718	-89.81766	1120.06371	-586.41467	-24.90462	1063.85873	-426.23702	-20.66371	1048.71573	-727.38317	-14.92198	990.21027	-555.06491	-13.11959	986.78899	-591.45103	-3.75680	891.47829	-282.41867	-19.56295	764.66177	-282.79448	3.84684	811.78889	-230.10813	105.45577	887.78139	-287.21619	150.85042	949.42709	-351.59625	182.47947	922.00543	-332.73833	5.17538	865.22028	-850.83979	6.32416	736.10564	-830.03867	24.46599	763.89014	-890.81115	132.32039	844.56357	-833.73152	183.71993	912.04722	-770.24344	213.79785	881.35442	-780.57342	-350.67075	647.29972	-483.81225	-350.92026	640.87210	-674.37610	-343.11135	644.62965	-489.81232	-332.32382	642.05962	-640.60339	
1127	11.26000000	-69.56361	441.01221	-322.00347	-24.99653	383.35240	-312.83995	-247.98777	98.07910	-361.13425	-306.98359	58.73277	-413.12067	-139.99036	39.23553	-302.02153	-91.51117	61.70335	-349.04051	-54.39458	437.55943	-820.09981	-42.10762	355.07469	-840.58809	-232.00875	99.81734	-798.71041	-295.01682	58.49050	-747.89377	-123.96735	40.42194	-841.11593	-75.93698	58.24439	-789.84716	-74.47143	281.93551	-331.93204	-94.97026	411.25418	-297.80933	-147.06592	308.14271	-296.91145	-115.37981	405.40893	-836.07992	-176.55945	295.17423	-829.60993	-232.71635	661.44757	-449.22767	-141.33770	613.77728	-407.45542	-152.20365	592.49059	-344.30315	-289.59588	627.38942	-360.21453	-199.82834	566.72316	-326.22927	-276.38598	648.32494	-773.59813	-172.09300	560.08996	-817.14267	-349.59196	562.06556	-777.73263	-241.27801	474.55955	-782.04849	-256.32818	691.13102	-453.32234	-413.76369	783.70584	-540.81346	-247.69481	662.95862	-679.97534	-406.76078	782.01749	-635.84226	-87.76557	1111.15691	-586.19432	-23.14423	1053.96979	-426.21213	-18.80344	1038.87871	-726.85157	-13.84003	979.89879	-554.58158	-12.17360	976.82777	-591.15308	-0.81098	881.85264	-283.00887	-15.39203	754.97913	-283.57405	7.74119	802.11664	-230.96028	108.17502	879.55303	-287.98231	152.58072	941.95095	-352.35705	184.52428	914.66435	-333.96682	8.02588	855.81050	-850.23796	9.66532	726.17233	-830.15618	28.16124	754.54242	-890.02052	134.59058	836.64760	-832.77641	185.15675	904.80537	-769.11115	215.51327	874.48638	-779.60588	-353.73641	639.82710	-484.00221	-352.97446	633.59186	-674.57098	-345.94941	637.45867	-489.90485	-334.86432	634.78607	-640.32320	
